<svg width="23" height="21" viewBox="0 0 23 21" fill="none" xmlns="http://www.w3.org/2000/svg">
<path d="M21.2031 0.37207H1.79688C1.33018 0.37207 0.953125 0.736759 0.953125 1.18816V19.9581C0.953125 20.4095 1.33018 20.7742 1.79688 20.7742H21.2031C21.6698 20.7742 22.0469 20.4095 22.0469 19.9581V1.18816C22.0469 0.736759 21.6698 0.37207 21.2031 0.37207ZM7.21006 17.7573H4.08027V8.02033H7.21006V17.7573ZM5.64648 6.68909C5.2877 6.68909 4.93697 6.58618 4.63865 6.39339C4.34032 6.20059 4.10781 5.92656 3.97051 5.60595C3.83321 5.28534 3.79728 4.93256 3.86728 4.5922C3.93727 4.25184 4.11005 3.93921 4.36375 3.69382C4.61745 3.44844 4.94068 3.28133 5.29258 3.21363C5.64447 3.14593 6.00922 3.18068 6.3407 3.31348C6.67217 3.44628 6.95549 3.67117 7.15482 3.95971C7.35415 4.24825 7.46055 4.58748 7.46055 4.9345C7.45791 5.9036 6.6458 6.68909 5.64648 6.68909ZM18.9276 17.7573H15.8005V13.0214C15.8005 11.8916 15.7794 10.4405 14.1736 10.4405C12.5468 10.4405 12.2963 11.6698 12.2963 12.9398V17.7573H9.17178V8.02033H12.1724V9.35157H12.2146C12.6312 8.58649 13.6516 7.77805 15.1756 7.77805C18.3449 7.77805 18.9276 9.79531 18.9276 12.417V17.7573Z" fill="#2D164A"/>
</svg>
