<svg width="122" height="25" viewBox="0 0 122 25" fill="none" xmlns="http://www.w3.org/2000/svg">
<path d="M50.5265 14.3003C47.6175 14.3003 45.2605 11.949 45.2605 9.0497C45.2605 6.15001 47.6171 3.79874 50.5265 3.79874C51.2508 3.79874 51.9365 3.95242 52.5633 4.21649L55.5232 1.34421C55.2166 1.16154 54.8976 0.993563 54.5615 0.845442C53.2797 0.281946 51.8433 0 50.2469 0C48.4191 0 46.7773 0.385196 45.3226 1.15678C43.8668 1.92677 42.7255 3.00015 41.894 4.37613C41.0626 5.75251 40.6484 7.30997 40.6484 9.0497C40.6484 10.7886 41.0626 12.3477 41.894 13.7233C42.7255 15.1 43.8668 16.173 45.3226 16.9434C46.7773 17.7138 48.4187 18.099 50.2469 18.099C51.8433 18.099 53.2797 17.817 54.5615 17.2535C55.8398 16.6901 56.9042 15.878 57.7524 14.8169L54.7809 12.136C53.8225 13.4457 52.2758 14.3003 50.5265 14.3003Z" fill="#4E00AE"/>
<path d="M12.5663 0.273926H7.70498L0 17.6776H4.88127L10.099 5.0976L18.4009 24.1683H23.3802L12.5663 0.273926Z" fill="#4E00AE"/>
<path d="M122 13.8734V17.6781H101.734V0.274414H115.424V4.07911H106.622V7.01334V10.691V13.8738H122V13.8734Z" fill="#4E00AE"/>
<path d="M25.384 8.83757C26.528 8.83757 27.4555 7.9127 27.4555 6.77181C27.4555 5.63093 26.528 4.70605 25.384 4.70605C24.2399 4.70605 23.3125 5.63093 23.3125 6.77181C23.3125 7.9127 24.2399 8.83757 25.384 8.83757Z" fill="#FF487D"/>
<path d="M12.2636 15.6415C12.2636 16.809 11.3139 17.7553 10.1439 17.7553C8.97317 17.7553 8.02344 16.809 8.02344 15.6415C8.02344 14.474 8.97317 13.5273 10.1439 13.5273C11.3139 13.5273 12.2636 14.474 12.2636 15.6415Z" fill="#FF487D"/>
<path d="M85.9976 8.6269C85.9976 9.79241 85.0478 10.7387 83.8783 10.7387C82.7071 10.7387 81.7578 9.79241 81.7578 8.6269C81.7578 7.45861 82.7071 6.5127 83.8783 6.5127C85.0478 6.51309 85.9976 7.45861 85.9976 8.6269Z" fill="#FF487D"/>
<path d="M111.167 11.35C112.338 11.35 113.287 10.4034 113.287 9.23578C113.287 8.06814 112.338 7.12158 111.167 7.12158C109.996 7.12158 109.047 8.06814 109.047 9.23578C109.047 10.4034 109.996 11.35 111.167 11.35Z" fill="#FF487D"/>
<path d="M52.5753 8.98761C52.5753 10.1547 51.6252 11.1018 50.4552 11.1018C49.2849 11.1018 48.3359 10.1547 48.3359 8.98761C48.3359 7.82131 49.2849 6.875 50.4552 6.875C51.6248 6.875 52.5753 7.82131 52.5753 8.98761Z" fill="#FF487D"/>
<path d="M97.9227 4.37694C97.1088 3.06767 95.9615 2.05664 94.4822 1.34383C93.002 0.631415 91.3068 0.274414 89.3966 0.274414H75.6719V4.18196H86.0799V4.203H89.1955C90.6932 4.203 91.893 4.62513 92.8001 5.47097C93.7049 6.31641 94.1584 7.4851 94.1584 8.97664C94.1584 10.467 93.7049 11.6357 92.8001 12.4815C91.8934 13.3266 90.6932 13.7487 89.1955 13.7487H86.0799H81.1425V17.6781H89.397C91.3076 17.6781 93.0028 17.3219 94.4826 16.6083C95.9619 15.8963 97.1092 14.8852 97.9231 13.5748C98.7371 12.2655 99.1448 10.7319 99.1448 8.97664C99.1448 7.22023 98.7367 5.687 97.9227 4.37694Z" fill="#4E00AE"/>
<path d="M34.4665 12.2075C35.5628 11.677 36.4074 10.9431 36.9968 10.0067C37.5869 9.07195 37.8824 7.97434 37.8824 6.71432C37.8824 5.40465 37.5666 4.26615 36.935 3.29522C36.3031 2.32627 35.4051 1.5805 34.2419 1.05791C33.078 0.536108 31.7085 0.274414 30.1292 0.274414H17.4609V4.14066H27.292V4.15337H29.8298C30.0699 4.15337 30.2941 4.16687 30.5083 4.19189C31.116 4.21055 31.6691 4.43769 32.098 4.80542C32.1055 4.81217 32.1151 4.81733 32.1231 4.82369C32.1414 4.83957 32.1553 4.85704 32.1728 4.87293C32.2103 4.90867 32.2493 4.9444 32.2847 4.98173C32.2971 4.99523 32.3098 5.00834 32.3214 5.02264C32.7399 5.47852 32.9983 6.08292 32.9983 6.74966C32.9983 8.16376 31.8479 9.30982 30.4283 9.30982H22.1499V17.6773H27.0857V13.0522H29.7792L34.4809 20.0595H39.7663L34.4665 12.2075Z" fill="#4E00AE"/>
<path d="M16.4925 9.10888L12.5689 0.274414H12.1273L10.1016 5.09808L12.2029 10.1644L16.4925 9.10888Z" fill="url(#paint0_linear_25_10)"/>
<path d="M71.2923 0.274414H66.4305L56.4219 22.9592H61.3032L68.8242 5.09808L74.0427 17.6781H79.0216L71.2923 0.274414Z" fill="#4E00AE"/>
<path d="M68.8701 17.7558C70.041 17.7558 70.9901 16.8092 70.9901 15.6415C70.9901 14.4739 70.041 13.5273 68.8701 13.5273C67.6992 13.5273 66.75 14.4739 66.75 15.6415C66.75 16.8092 67.6992 17.7558 68.8701 17.7558Z" fill="#FF487D"/>
<path d="M75.212 9.10888L71.2884 0.274414H70.8468L68.8203 5.09808L70.9225 10.1644L75.212 9.10888Z" fill="url(#paint1_linear_25_10)"/>
<path d="M31.2645 9.15946L35.0546 11.8761C35.7666 11.4436 36.3472 10.9067 36.8016 10.2698L36.7861 10.2253C35.8435 3.72146 29.8281 4.15391 29.8281 4.15391C30.0682 4.15391 30.2924 4.16741 30.5067 4.19243C31.1144 4.21109 31.6675 4.43824 32.0963 4.80596C32.1039 4.81271 32.1135 4.81787 32.1214 4.82423C32.1397 4.84011 32.1537 4.85758 32.1712 4.87347C32.2086 4.90921 32.2477 4.94495 32.2831 4.98227C32.2954 4.99578 32.3082 5.00888 32.3197 5.02318C32.7383 5.47906 32.9967 6.08346 32.9967 6.7502C32.9967 7.87005 32.2704 8.81239 31.2645 9.15946Z" fill="url(#paint2_linear_25_10)"/>
<path d="M45.2658 9.04988C45.2658 6.88524 46.5807 5.02717 48.4563 4.22382L48.4491 4.18848C48.4491 4.18848 41.5979 4.91876 41.2578 12.409C41.4346 12.8637 41.6449 13.3033 41.8989 13.7234C42.2725 14.3417 42.7177 14.8893 43.217 15.3857L47.7714 13.5157C46.2697 12.5901 45.2658 10.9385 45.2658 9.04988Z" fill="url(#paint3_linear_25_10)"/>
<path d="M91.1797 13.4437C92.3074 13.2194 98.5605 11.764 98.9771 7.11662C98.9349 6.89225 98.8831 6.67304 98.8249 6.45741L94.8894 4.45996L91.8511 4.80147C92.1955 4.98414 92.5145 5.20374 92.8012 5.471C93.7059 6.31644 94.1595 7.48513 94.1595 8.97667C94.1595 10.467 93.7059 11.6357 92.8012 12.4815C92.3381 12.9124 91.7969 13.2329 91.1797 13.4437Z" fill="url(#paint4_linear_25_10)"/>
<path d="M101.734 4.05469V11.5068H106.622V10.6904V7.01235V4.07852L101.734 4.05469Z" fill="url(#paint5_linear_25_10)"/>
<defs>
<linearGradient id="paint0_linear_25_10" x1="14.6445" y1="9.64894" x2="12.3583" y2="5.14014" gradientUnits="userSpaceOnUse">
<stop stop-color="#2B0073" stop-opacity="0"/>
<stop offset="1" stop-color="#2B0073"/>
</linearGradient>
<linearGradient id="paint1_linear_25_10" x1="73.3641" y1="9.64875" x2="71.0778" y2="5.13994" gradientUnits="userSpaceOnUse">
<stop stop-color="#2B0073" stop-opacity="0"/>
<stop offset="1" stop-color="#2B0073"/>
</linearGradient>
<linearGradient id="paint2_linear_25_10" x1="32.3204" y1="8.97274" x2="34.0993" y2="5.80571" gradientUnits="userSpaceOnUse">
<stop stop-color="#2B0073" stop-opacity="0"/>
<stop offset="0.9212" stop-color="#2B0073"/>
</linearGradient>
<linearGradient id="paint3_linear_25_10" x1="44.8574" y1="13.0433" x2="44.8574" y2="5.98396" gradientUnits="userSpaceOnUse">
<stop stop-color="#2B0073" stop-opacity="0"/>
<stop offset="0.9212" stop-color="#2B0073"/>
</linearGradient>
<linearGradient id="paint4_linear_25_10" x1="95.28" y1="6.77284" x2="94.6111" y2="10.574" gradientUnits="userSpaceOnUse">
<stop stop-color="#2B0073" stop-opacity="0"/>
<stop offset="0.9212" stop-color="#2B0073"/>
</linearGradient>
<linearGradient id="paint5_linear_25_10" x1="104.205" y1="8.94547" x2="104.094" y2="4.14271" gradientUnits="userSpaceOnUse">
<stop stop-color="#2B0073" stop-opacity="0"/>
<stop offset="0.9212" stop-color="#2B0073"/>
</linearGradient>
</defs>
</svg>
