<svg width="18" height="19" viewBox="0 0 18 19" fill="none" xmlns="http://www.w3.org/2000/svg">
<path d="M17.2234 9.88235L12.8481 10.5153L16.0988 13.8556C16.2745 14.1017 16.3389 14.3772 16.2921 14.6819C16.2452 14.9866 16.1046 15.2269 15.8704 15.4027L12.4264 18.0223C12.1921 18.1981 11.9315 18.2625 11.6445 18.2157C11.3575 18.1688 11.1261 18.0223 10.9504 17.7761L9 13.6798L7.04959 17.7761C6.87388 18.0223 6.64252 18.1688 6.35553 18.2157C6.06853 18.2625 5.80789 18.1981 5.5736 18.0223L2.12964 15.4027C1.89535 15.2269 1.75478 14.9866 1.70793 14.6819C1.66107 14.3772 1.7255 14.1017 1.90121 13.8556L5.15189 10.5153L0.77665 9.88235C0.483795 9.78858 0.267083 9.60691 0.126513 9.33734C-0.014057 9.06777 -0.0374854 8.79234 0.056228 8.51104L1.44436 4.36197C1.53807 4.06895 1.72257 3.85505 1.99785 3.72026C2.27314 3.58548 2.5572 3.56497 2.85006 3.65873L6.3116 5.39923L5.62632 1.35564C5.62632 1.05091 5.7376 0.787195 5.96017 0.564505C6.18274 0.341814 6.44631 0.230469 6.75088 0.230469H11.2491C11.5537 0.230469 11.8173 0.341814 12.0398 0.564505C12.2624 0.787195 12.3737 1.05091 12.3737 1.35564L11.6884 5.39923L15.1499 3.65873C15.4428 3.56497 15.7269 3.58548 16.0021 3.72026C16.2774 3.85505 16.4619 4.06895 16.5556 4.36197L17.9438 8.51104C18.0375 8.79234 18.0141 9.06777 17.8735 9.33734C17.7329 9.60691 17.5162 9.78858 17.2234 9.88235Z" fill="#FF487D"/>
</svg>
