<svg width="22" height="18" viewBox="0 0 22 18" fill="none" xmlns="http://www.w3.org/2000/svg">
<path d="M6.91075 17.367C15.213 17.367 19.7546 10.7134 19.7546 4.95355C19.7546 4.76736 19.7546 4.57851 19.7464 4.39232C20.6306 3.77323 21.3937 3.00675 22 2.1288C21.1741 2.48103 20.2988 2.71318 19.4026 2.8177C20.3466 2.27195 21.0536 1.41327 21.3923 0.40124C20.5054 0.909434 19.5346 1.26618 18.5226 1.45587C17.8423 0.75503 16.9419 0.290748 15.9611 0.134934C14.9803 -0.0208793 13.9737 0.140472 13.0973 0.593995C12.2209 1.04752 11.5236 1.7679 11.1134 2.64356C10.7031 3.51922 10.6029 4.50129 10.8281 5.43764C9.03339 5.3506 7.27762 4.89965 5.67468 4.11403C4.07175 3.32841 2.65744 2.22568 1.5235 0.877351C0.947843 1.83899 0.772164 2.97649 1.03214 4.05887C1.29211 5.14124 1.96825 6.08734 2.92325 6.70505C2.20762 6.68154 1.50772 6.49567 0.88 6.16245V6.22229C0.881234 7.22968 1.24205 8.20576 1.90145 8.98554C2.56086 9.76532 3.4784 10.301 4.499 10.502C4.11161 10.6052 3.71144 10.6566 3.30963 10.6549C3.02635 10.6557 2.74365 10.6304 2.46537 10.5791C2.75383 11.4463 3.3155 12.2045 4.07171 12.7475C4.82793 13.2905 5.74081 13.5912 6.6825 13.6073C5.08276 14.8226 3.10668 15.4817 1.0725 15.4785C0.714066 15.48 0.355882 15.46 0 15.4187C2.06458 16.6918 4.46228 17.3677 6.91075 17.367Z" fill="#2D164A"/>
</svg>
