<svg width="32" height="46" viewBox="0 0 32 46" fill="none" xmlns="http://www.w3.org/2000/svg">
<path d="M21.7173 4.59954H21.7287H21.7173ZM21.7173 4.59954L16.0023 18.3982L27.4323 25.0629L10.2873 41.3959L16.0023 27.5972L4.57226 20.9279L21.7173 4.59954ZM21.7173 0C20.4326 0.0275972 19.365 0.50365 18.5649 1.26717L1.42672 17.584C0.379725 18.5844 -0.139199 20.0195 0.0322518 21.4615C0.196844 22.9011 1.03124 24.1798 2.27711 24.9065L10.237 29.5543L6.06274 39.6296C5.2352 41.6327 5.91186 43.9509 7.69037 45.1859C8.47676 45.7286 9.37973 46 10.285 46C11.4234 46 12.555 45.5722 13.4282 44.7397L30.5733 28.4045C31.6203 27.4064 32.1392 25.9713 31.9678 24.5293C31.8009 23.0874 30.9665 21.8087 29.7229 21.0843L21.763 16.4434L25.8527 6.57044C26.1339 5.9725 26.2916 5.30327 26.2916 4.59954C26.2916 2.06519 24.2571 0.00919908 21.7173 0Z" fill="#350272"/>
</svg>
