<svg width="47" height="40" viewBox="0 0 47 40" fill="none" xmlns="http://www.w3.org/2000/svg">
<path d="M36.7703 6.374L36.7826 6C36.7826 4.398 36.145 2.89 34.9864 1.758C33.8298 0.624 32.289 0 30.6522 0C29.0153 0 27.4746 0.624 26.318 1.758L20.4082 7.54C19.3252 6.594 17.9131 6 16.3478 6H14.3043C6.41857 6 0 12.28 0 20C0 26.612 4.37304 32.168 10.2297 33.626L10.2174 34C10.2174 35.602 10.855 37.11 12.0136 38.242C13.1702 39.376 14.711 40 16.3478 40C17.9847 40 19.5254 39.376 20.682 38.242L26.5918 32.46C27.6748 33.406 29.0869 34 30.6522 34H32.6957C40.5814 34 47 27.72 47 20C47 13.388 42.627 7.832 36.7703 6.374ZM32.6957 30H30.6522C29.5221 30 28.6087 29.104 28.6087 28C28.6087 26.896 29.5221 26 30.6522 26H32.6957C36.0756 26 38.8261 23.308 38.8261 20C38.8261 16.692 36.5353 14 33.7174 14H29.4547L32.0969 16.586C32.8959 17.368 32.8959 18.632 32.0969 19.414C31.6984 19.804 31.1753 20 30.6522 20C30.129 20 29.6059 19.804 29.2074 19.414L21.6323 12L29.2074 4.586C29.6059 4.196 30.129 4 30.6522 4C31.1753 4 31.6984 4.196 32.0969 4.586C32.8959 5.368 32.8959 6.632 32.0969 7.414L29.4547 10H33.7174C38.7873 10 42.913 14.486 42.913 20C42.913 25.514 38.3295 30 32.6957 30ZM34.2262 16.058C35.6567 16.386 36.7826 18.058 36.7826 20C36.7826 22.206 34.9496 24 32.6957 24H30.6522C28.9009 24 27.4153 25.088 26.835 26.608L19.2373 19.172C18.4649 18.416 17.439 18 16.3478 18C15.2566 18 14.2308 18.416 13.4583 19.172C12.6859 19.928 12.2609 20.932 12.2609 22C12.2609 22.69 12.4387 23.354 12.7738 23.942C11.3433 23.614 10.2174 21.942 10.2174 20C10.2174 17.794 12.0504 16 14.3043 16H16.3478C18.0991 16 19.5847 14.912 20.165 13.392L27.7627 20.828C28.5351 21.584 29.561 22 30.6522 22C31.7434 22 32.7692 21.584 33.5417 20.828C34.3141 20.072 34.7391 19.068 34.7391 18C34.7391 17.31 34.5613 16.646 34.2262 16.058ZM18.3913 12C18.3913 13.104 17.4779 14 16.3478 14H14.3043C10.9244 14 8.17391 16.692 8.17391 20C8.17391 23.308 10.4647 26 13.2826 26H17.5453L14.9031 23.414C14.1041 22.632 14.1041 21.368 14.9031 20.586C15.3016 20.196 15.8247 20 16.3478 20C16.871 20 17.3941 20.196 17.7926 20.586L25.3677 28L17.7926 35.414C17.3941 35.804 16.871 36 16.3478 36C15.8247 36 15.3016 35.804 14.9031 35.414C14.1041 34.632 14.1041 33.368 14.9031 32.586L17.5453 30H13.2826C8.21274 30 4.08696 25.514 4.08696 20C4.08696 14.486 8.67048 10 14.3043 10H16.3478C17.4779 10 18.3913 10.896 18.3913 12Z" fill="#350272"/>
</svg>
