<svg width="36" height="36" viewBox="0 0 36 36" fill="none" xmlns="http://www.w3.org/2000/svg">
<path d="M26.1 3.6C29.574 3.6 32.4 6.426 32.4 9.9C32.4 13.374 29.574 16.2 26.1 16.2H23.4V19.8H26.1C29.574 19.8 32.4 22.626 32.4 26.1C32.4 29.574 29.574 32.4 26.1 32.4C22.626 32.4 19.8 29.574 19.8 26.1V23.4H16.2V26.1C16.2 29.574 13.374 32.4 9.9 32.4C6.426 32.4 3.6 29.574 3.6 26.1C3.6 22.626 6.426 19.8 9.9 19.8H12.6V16.2H9.9C6.426 16.2 3.6 13.374 3.6 9.9C3.6 6.426 6.426 3.6 9.9 3.6C13.374 3.6 16.2 6.426 16.2 9.9V12.6H19.8V9.9C19.8 6.426 22.626 3.6 26.1 3.6ZM23.4 12.6H26.1C27.5886 12.6 28.8 11.3868 28.8 9.9C28.8 8.4096 27.5886 7.2 26.1 7.2C24.6114 7.2 23.4 8.4096 23.4 9.9V12.6ZM9.9 12.6H12.6V9.9C12.6 8.4096 11.3886 7.2 9.9 7.2C8.4114 7.2 7.2 8.4096 7.2 9.9C7.2 11.3868 8.4114 12.6 9.9 12.6ZM26.1 28.8C27.5886 28.8 28.8 27.5868 28.8 26.1C28.8 24.6096 27.5886 23.4 26.1 23.4H23.4V26.1C23.4 27.5868 24.6114 28.8 26.1 28.8ZM9.9 28.8C11.3886 28.8 12.6 27.5868 12.6 26.1V23.4H9.9C8.4114 23.4 7.2 24.6096 7.2 26.1C7.2 27.5868 8.4114 28.8 9.9 28.8ZM26.1 0C22.7574 0 19.7928 1.6668 18 4.2138C16.2072 1.6668 13.2426 0 9.9 0C4.4406 0 0 4.4424 0 9.9C0 13.2426 1.6668 16.2072 4.2138 18C1.6668 19.7928 0 22.7574 0 26.1C0 31.5576 4.4406 36 9.9 36C13.2426 36 16.2072 34.3332 18 31.7862C19.7928 34.3332 22.7574 36 26.1 36C31.5594 36 36 31.5576 36 26.1C36 22.7574 34.3332 19.7928 31.7862 18C34.3332 16.2072 36 13.2426 36 9.9C36 4.4424 31.5594 0 26.1 0ZM19.8 16.2H16.2V19.8H19.8V16.2Z" fill="#350272"/>
</svg>
