<svg width="38" height="34" viewBox="0 0 38 34" fill="none" xmlns="http://www.w3.org/2000/svg">
<path d="M36.3554 12.8746C37.4068 11.7357 38 10.2914 38 8.7481C38 7.09545 37.3413 5.53978 36.1443 4.37199C34.9494 3.20214 33.3577 2.55841 31.6667 2.55841C29.9757 2.55841 28.3839 3.20214 27.189 4.37199C26.6971 4.85066 26.0363 5.11682 25.3333 5.11682C24.6303 5.11682 23.9696 4.85066 23.4777 4.36993C20.5939 1.55155 16.7538 0 12.6667 0C8.57956 0 4.73944 1.55155 1.85567 4.36993C0.658667 5.53978 0 7.09545 0 8.7481C0 10.2914 0.593222 11.7357 1.64456 12.8746C0.593222 14.0114 0 15.4577 0 17.001C0 18.5443 0.593222 19.9886 1.64456 21.1275C0.593222 22.2643 0 23.7107 0 25.254C0 26.9066 0.658667 28.4623 1.85567 29.6301C3.05056 30.7979 4.64233 31.4437 6.33333 31.4437C8.02433 31.4437 9.61611 30.7999 10.811 29.6301C11.305 29.1493 11.9616 28.8832 12.6646 28.8832C13.3676 28.8832 14.0283 29.1493 14.5223 29.6321C17.4082 32.4484 21.2462 34 25.3333 34C29.4226 34 33.2606 32.4484 36.1443 29.6301C37.3413 28.4602 38 26.9066 38 25.254C38 23.7107 37.4068 22.2664 36.3554 21.1275C37.4068 19.9886 38 18.5443 38 17.001C38 15.4577 37.4068 14.0114 36.3554 12.8746ZM33.1592 26.7127C31.0038 28.8192 28.1686 29.8735 25.3333 29.8735C22.5002 29.8735 19.665 28.8192 17.5074 26.7127C16.1711 25.4087 14.4189 24.7567 12.6667 24.7567C10.9123 24.7567 9.16011 25.4087 7.828 26.7127C7.41422 27.115 6.87378 27.3172 6.33333 27.3172C5.79289 27.3172 5.25245 27.115 4.84078 26.7127C4.01533 25.9059 4.01533 24.602 4.84078 23.7953C6.99622 21.6887 9.83144 20.6344 12.6646 20.6344C15.4998 20.6344 18.335 21.6887 20.4926 23.7953C21.8268 25.0992 23.5811 25.7491 25.3333 25.7491C27.0877 25.7491 28.8399 25.0992 30.1741 23.7953C30.5858 23.3929 31.1262 23.1907 31.6667 23.1907C32.2071 23.1907 32.7476 23.3929 33.1592 23.7953C33.9847 24.5999 33.9847 25.9059 33.1592 26.7127ZM4.84078 7.2894C6.99622 5.18078 9.83356 4.12646 12.6667 4.12646C15.5019 4.12646 18.335 5.18078 20.4926 7.28734C21.8268 8.59336 23.5811 9.24328 25.3333 9.24328C27.0877 9.24328 28.8399 8.59336 30.1741 7.2894C30.5858 6.885 31.1262 6.68487 31.6667 6.68487C32.2071 6.68487 32.7476 6.88707 33.1592 7.2894C33.9847 8.09612 33.9847 9.40009 33.1592 10.2068C31.0038 12.3134 28.1686 13.3677 25.3333 13.3677C22.5002 13.3677 19.665 12.3134 17.5074 10.2068C16.1711 8.90285 14.4189 8.25087 12.6667 8.25087C10.9123 8.25087 9.16011 8.90285 7.828 10.2068C7.41422 10.6091 6.87378 10.8113 6.33333 10.8113C5.79289 10.8113 5.25245 10.6091 4.84078 10.2068C4.01533 9.40009 4.01533 8.09406 4.84078 7.2894ZM33.1592 18.4597C31.0038 20.5663 28.1686 21.6206 25.3333 21.6206C22.5002 21.6206 19.665 20.5663 17.5074 18.4597C16.1711 17.1558 14.4189 16.5038 12.6667 16.5038C10.9123 16.5038 9.16011 17.1558 7.828 18.4597C7.41422 18.8621 6.87378 19.0643 6.33333 19.0643C5.79289 19.0643 5.25245 18.8621 4.84078 18.4597C4.01533 17.653 4.01533 16.3491 4.84078 15.5423C6.99622 13.4358 9.83144 12.3815 12.6646 12.3815C15.4998 12.3815 18.335 13.4358 20.4926 15.5423C21.8268 16.8463 23.5811 17.4962 25.3333 17.4962C27.0877 17.4962 28.8399 16.8463 30.1741 15.5423C30.5858 15.14 31.1262 14.9378 31.6667 14.9378C32.2071 14.9378 32.7476 15.14 33.1592 15.5423C33.9847 16.347 33.9847 17.653 33.1592 18.4597Z" fill="#350272"/>
</svg>
